<svg width="512" height="512" viewBox="0 0 512 512" fill="none" xmlns="http://www.w3.org/2000/svg">
<circle cx="256" cy="256" r="256" fill="#F7931A"/>
<path d="M346.312 158.688C348.375 142.125 337.313 133.125 321.75 128.625L327.188 108.75L311.625 105L306.188 124.875C302.063 123.75 297.75 122.625 293.438 121.5L298.875 101.625L283.313 97.875L277.875 117.75C274.875 117 271.875 116.25 268.875 115.5L268.875 115.5L247.125 110.25L243.375 126.938C243.375 126.938 254.625 129.563 254.438 129.75C260.625 131.25 261.75 135.375 261.563 138.75L255.375 162.375C255.938 162.563 256.688 162.75 257.625 163.125L255.375 162.375L246.375 200.625C245.625 202.5 243.563 205.313 239.063 204.188C239.25 204.375 228.188 201.563 228.188 201.563L221.438 219.375L242.438 224.438C246.188 225.375 249.938 226.313 253.688 227.25L248.063 247.313L263.625 251.063L269.063 231.188C273.375 232.5 277.5 233.625 281.438 234.563L276 254.438L291.563 258.188L297.188 238.125C318.188 241.688 333.563 240.188 340.125 221.813C345.375 206.813 339.938 198.188 328.875 192.563C336.563 190.5 342.188 185.063 346.312 158.688ZM313.875 215.438C310.125 232.5 280.875 223.125 270.563 220.313L277.875 190.313C288.188 193.125 317.813 197.25 313.875 215.438ZM317.625 158.25C314.25 173.625 289.875 166.125 281.438 163.875L287.813 137.063C296.25 139.313 321.188 142.125 317.625 158.25Z" fill="white"/>
</svg>
